<svg xmlns="http://www.w3.org/2000/svg" viewBox="0 0 128 160" x="0px" y="0px"><title>trading, computer, graph, business, finance, line, growth, sales_1</title><g><polygon points="50.68 88.82 49.24 101.83 78.76 101.83 77.32 88.82 50.68 88.82"/><path d="M84.105,102.831H43.763a2.339,2.339,0,1,0,0,4.677H84.105a2.339,2.339,0,0,0,0-4.677Z"/><path d="M108.32,20.492H19.68a3.174,3.174,0,0,0-3.174,3.175V84.648a3.175,3.175,0,0,0,3.174,3.175h88.64a3.175,3.175,0,0,0,3.174-3.175V23.667A3.174,3.174,0,0,0,108.32,20.492ZM107.6,69.883H20.345V24.458H107.6Z"/><path d="M94.559,54.157a1,1,0,0,0,1,1h7.078a1,1,0,0,0,0-2H95.559A1,1,0,0,0,94.559,54.157Z"/><path d="M102.637,57.655H95.559a1,1,0,0,0,0,2h7.078a1,1,0,0,0,0-2Z"/><path d="M102.637,62.153H95.559a1,1,0,1,0,0,2h7.078a1,1,0,0,0,0-2Z"/><path d="M27.625,32.125H39.869a1,1,0,0,0,0-2H27.625a1,1,0,0,0,0,2Z"/><path d="M27.625,37.156H39.869a1,1,0,0,0,0-2H27.625a1,1,0,0,0,0,2Z"/><path d="M37.762,44.9a2.176,2.176,0,0,0,.026.256l-6.41,4.372a1,1,0,1,0,1.127,1.653l6.409-4.372a2.132,2.132,0,0,0,1.865.1L52.847,56.935a2.178,2.178,0,1,0,4.169-.308l7.651-8.137a2.138,2.138,0,0,0,2.7-1.59l8.581-2.177a2.115,2.115,0,0,0,2.348.64l6.254,6.031a2.149,2.149,0,0,0-.09.587,2.176,2.176,0,1,0,4.223-.712l11.23-12.195a1,1,0,1,0-1.472-1.354L87.231,49.9a2.142,2.142,0,0,0-.592-.092,2.165,2.165,0,0,0-.718.13l-6.243-6.021a2.169,2.169,0,1,0-4.184-1.139l-8.62,2.187a2.163,2.163,0,0,0-3.665,2.158l-7.671,8.159a2.081,2.081,0,0,0-1.431.1L42.06,45.374a2.175,2.175,0,1,0-4.3-.472Z"/></g><text x="0" y="143" fill="#000000" font-size="5px" font-weight="bold" font-family="'Helvetica Neue', Helvetica, Arial-Unicode, Arial, Sans-serif">Created by Victoruler</text><text x="0" y="148" fill="#000000" font-size="5px" font-weight="bold" font-family="'Helvetica Neue', Helvetica, Arial-Unicode, Arial, Sans-serif">from the Noun Project</text></svg>